<svg xmlns="http://www.w3.org/2000/svg" viewBox="0 0 960 300" role="img" aria-labelledby="title desc">
  <title id="title">Invulb project preview</title>
  <desc id="desc">Retirement investment analytics preview.</desc>
  <rect width="960" height="300" fill="#07111e"/>
  <g stroke="#193e62" stroke-width="1">
    <path d="M0 60h960M0 120h960M0 180h960M0 240h960"/>
    <path d="M120 0v300M240 0v300M360 0v300M480 0v300M600 0v300M720 0v300M840 0v300"/>
  </g>
  <path d="M70 220 C164 170 220 202 296 136 C378 66 455 128 530 90 C613 48 690 102 772 70 C838 44 890 56 930 38" fill="none" stroke="#36d9ff" stroke-width="7"/>
  <path d="M70 238 C160 214 236 224 324 188 C432 144 507 164 608 128 C726 86 828 104 930 86" fill="none" stroke="#ff8a3d" stroke-width="5"/>
  <rect x="64" y="44" width="222" height="72" rx="8" fill="#0c1728" stroke="#2d7dff" stroke-width="3"/>
  <text x="88" y="88" fill="#ffffff" font-family="Arial, Helvetica, sans-serif" font-size="32" font-weight="700">INVULB</text>
  <text x="88" y="108" fill="#9fc3df" font-family="Arial, Helvetica, sans-serif" font-size="16">portfolio growth</text>
</svg>
