<svg xmlns="http://www.w3.org/2000/svg" viewBox="0 0 960 300" role="img" aria-labelledby="title desc">
  <title id="title">GetKredit project preview</title>
  <desc id="desc">Credit evaluation dashboard preview.</desc>
  <rect width="960" height="300" fill="#08111d"/>
  <rect x="66" y="62" width="828" height="176" rx="8" fill="#0f1a2b" stroke="#2d7dff" stroke-width="3"/>
  <rect x="104" y="102" width="250" height="96" rx="8" fill="#132945"/>
  <path d="M398 192h50v-46h-50zM470 192h50v-78h-50zM542 192h50v-34h-50zM614 192h50v-108h-50z" fill="#36d9ff"/>
  <path d="M704 160c0-38 31-69 69-69s69 31 69 69-31 69-69 69-69-31-69-69z" fill="none" stroke="#223c61" stroke-width="18"/>
  <path d="M704 160c0-38 31-69 69-69" fill="none" stroke="#ff8a3d" stroke-width="18" stroke-linecap="round"/>
  <text x="126" y="146" fill="#ffffff" font-family="Arial, Helvetica, sans-serif" font-size="28" font-weight="700">720</text>
  <text x="126" y="176" fill="#9fc3df" font-family="Arial, Helvetica, sans-serif" font-size="18">credit score</text>
  <text x="66" y="42" fill="#ffffff" font-family="Arial, Helvetica, sans-serif" font-size="38" font-weight="700">GETKREDIT</text>
</svg>
